<svg width="1240" height="560" viewBox="0 0 1240 560" fill="none" xmlns="http://www.w3.org/2000/svg">
<g opacity="0.1">
<circle cx="8.00008" cy="552" r="7.08333" fill="white"/>
<circle cx="76.0001" cy="552" r="7.08333" fill="white"/>
<circle cx="144" cy="552" r="7.08333" fill="white"/>
<circle cx="212" cy="552" r="7.08333" fill="white"/>
<circle cx="280" cy="552" r="7.08333" fill="white"/>
<circle cx="348" cy="552" r="7.08333" fill="white"/>
<circle cx="416" cy="552" r="7.08333" fill="white"/>
<circle cx="484" cy="552" r="7.08333" fill="white"/>
<circle cx="552" cy="552" r="7.08333" fill="white"/>
<circle cx="620" cy="552" r="7.08333" fill="white"/>
<circle cx="688" cy="552" r="7.08333" fill="white"/>
<circle cx="756" cy="552" r="7.08333" fill="white"/>
<circle cx="824" cy="552" r="7.08333" fill="white"/>
<circle cx="892" cy="552" r="7.08333" fill="white"/>
<circle cx="960" cy="552" r="7.08333" fill="white"/>
<circle cx="1028" cy="552" r="7.08333" fill="white"/>
<circle cx="1096" cy="552" r="7.08333" fill="white"/>
<circle cx="1164" cy="552" r="7.08333" fill="white"/>
<circle cx="1232" cy="552" r="7.08333" fill="white"/>
<circle cx="8.00008" cy="484" r="7.08333" fill="white"/>
<circle cx="76.0001" cy="484" r="7.08333" fill="white"/>
<circle cx="144" cy="484" r="7.08333" fill="white"/>
<circle cx="212" cy="484" r="7.08333" fill="white"/>
<circle cx="280" cy="484" r="7.08333" fill="white"/>
<circle cx="348" cy="484" r="7.08333" fill="white"/>
<circle cx="416" cy="484" r="7.08333" fill="white"/>
<circle cx="484" cy="484" r="7.08333" fill="white"/>
<circle cx="552" cy="484" r="7.08333" fill="white"/>
<circle cx="620" cy="484" r="7.08333" fill="white"/>
<circle cx="688" cy="484" r="7.08333" fill="white"/>
<circle cx="756" cy="484" r="7.08333" fill="white"/>
<circle cx="824" cy="484" r="7.08333" fill="white"/>
<circle cx="892" cy="484" r="7.08333" fill="white"/>
<circle cx="960" cy="484" r="7.08333" fill="white"/>
<circle cx="1028" cy="484" r="7.08333" fill="white"/>
<circle cx="1096" cy="484" r="7.08333" fill="white"/>
<circle cx="1164" cy="484" r="7.08333" fill="white"/>
<circle cx="1232" cy="484" r="7.08333" fill="white"/>
<circle cx="8.00008" cy="416" r="7.08333" fill="white"/>
<circle cx="76.0001" cy="416" r="7.08333" fill="white"/>
<circle cx="144" cy="416" r="7.08333" fill="white"/>
<circle cx="212" cy="416" r="7.08333" fill="white"/>
<circle cx="280" cy="416" r="7.08333" fill="white"/>
<circle cx="348" cy="416" r="7.08333" fill="white"/>
<circle cx="416" cy="416" r="7.08333" fill="white"/>
<circle cx="484" cy="416" r="7.08333" fill="white"/>
<circle cx="552" cy="416" r="7.08333" fill="white"/>
<circle cx="620" cy="416" r="7.08333" fill="white"/>
<circle cx="688" cy="416" r="7.08333" fill="white"/>
<circle cx="756" cy="416" r="7.08333" fill="white"/>
<circle cx="824" cy="416" r="7.08333" fill="white"/>
<circle cx="892" cy="416" r="7.08333" fill="white"/>
<circle cx="960" cy="416" r="7.08333" fill="white"/>
<circle cx="1028" cy="416" r="7.08333" fill="white"/>
<circle cx="1096" cy="416" r="7.08333" fill="white"/>
<circle cx="1164" cy="416" r="7.08333" fill="white"/>
<circle cx="1232" cy="416" r="7.08333" fill="white"/>
<circle cx="8.00008" cy="348" r="7.08333" fill="white"/>
<circle cx="76.0001" cy="348" r="7.08333" fill="white"/>
<circle cx="144" cy="348" r="7.08333" fill="white"/>
<circle cx="212" cy="348" r="7.08333" fill="white"/>
<circle cx="280" cy="348" r="7.08333" fill="white"/>
<circle cx="348" cy="348" r="7.08333" fill="white"/>
<circle cx="416" cy="348" r="7.08333" fill="white"/>
<circle cx="484" cy="348" r="7.08333" fill="white"/>
<circle cx="552" cy="348" r="7.08333" fill="white"/>
<circle cx="620" cy="348" r="7.08333" fill="white"/>
<circle cx="688" cy="348" r="7.08333" fill="white"/>
<circle cx="756" cy="348" r="7.08333" fill="white"/>
<circle cx="824" cy="348" r="7.08333" fill="white"/>
<circle cx="892" cy="348" r="7.08333" fill="white"/>
<circle cx="960" cy="348" r="7.08333" fill="white"/>
<circle cx="1028" cy="348" r="7.08333" fill="white"/>
<circle cx="1096" cy="348" r="7.08333" fill="white"/>
<circle cx="1164" cy="348" r="7.08333" fill="white"/>
<circle cx="1232" cy="348" r="7.08333" fill="white"/>
<circle cx="8.00008" cy="280" r="7.08333" fill="white"/>
<circle cx="76.0001" cy="280" r="7.08333" fill="white"/>
<circle cx="144" cy="280" r="7.08333" fill="white"/>
<circle cx="212" cy="280" r="7.08333" fill="white"/>
<circle cx="280" cy="280" r="7.08333" fill="white"/>
<circle cx="348" cy="280" r="7.08333" fill="white"/>
<circle cx="416" cy="280" r="7.08333" fill="white"/>
<circle cx="484" cy="280" r="7.08333" fill="white"/>
<circle cx="552" cy="280" r="7.08333" fill="white"/>
<circle cx="620" cy="280" r="7.08333" fill="white"/>
<circle cx="688" cy="280" r="7.08333" fill="white"/>
<circle cx="756" cy="280" r="7.08333" fill="white"/>
<circle cx="824" cy="280" r="7.08333" fill="white"/>
<circle cx="892" cy="280" r="7.08333" fill="white"/>
<circle cx="960" cy="280" r="7.08333" fill="white"/>
<circle cx="1028" cy="280" r="7.08333" fill="white"/>
<circle cx="1096" cy="280" r="7.08333" fill="white"/>
<circle cx="1164" cy="280" r="7.08333" fill="white"/>
<circle cx="1232" cy="280" r="7.08333" fill="white"/>
<circle cx="8.00008" cy="212" r="7.08333" fill="white"/>
<circle cx="76.0001" cy="212" r="7.08333" fill="white"/>
<circle cx="144" cy="212" r="7.08333" fill="white"/>
<circle cx="212" cy="212" r="7.08333" fill="white"/>
<circle cx="280" cy="212" r="7.08333" fill="white"/>
<circle cx="348" cy="212" r="7.08333" fill="white"/>
<circle cx="416" cy="212" r="7.08333" fill="white"/>
<circle cx="484" cy="212" r="7.08333" fill="white"/>
<circle cx="552" cy="212" r="7.08333" fill="white"/>
<circle cx="620" cy="212" r="7.08333" fill="white"/>
<circle cx="688" cy="212" r="7.08333" fill="white"/>
<circle cx="756" cy="212" r="7.08333" fill="white"/>
<circle cx="824" cy="212" r="7.08333" fill="white"/>
<circle cx="892" cy="212" r="7.08333" fill="white"/>
<circle cx="960" cy="212" r="7.08333" fill="white"/>
<circle cx="1028" cy="212" r="7.08333" fill="white"/>
<circle cx="1096" cy="212" r="7.08333" fill="white"/>
<circle cx="1164" cy="212" r="7.08333" fill="white"/>
<circle cx="1232" cy="212" r="7.08333" fill="white"/>
<circle cx="8.00008" cy="144" r="7.08333" fill="white"/>
<circle cx="76.0001" cy="144" r="7.08333" fill="white"/>
<circle cx="144" cy="144" r="7.08333" fill="white"/>
<circle cx="212" cy="144" r="7.08333" fill="white"/>
<circle cx="280" cy="144" r="7.08333" fill="white"/>
<circle cx="348" cy="144" r="7.08333" fill="white"/>
<circle cx="416" cy="144" r="7.08333" fill="white"/>
<circle cx="484" cy="144" r="7.08333" fill="white"/>
<circle cx="552" cy="144" r="7.08333" fill="white"/>
<circle cx="620" cy="144" r="7.08333" fill="white"/>
<circle cx="688" cy="144" r="7.08333" fill="white"/>
<circle cx="756" cy="144" r="7.08333" fill="white"/>
<circle cx="824" cy="144" r="7.08333" fill="white"/>
<circle cx="892" cy="144" r="7.08333" fill="white"/>
<circle cx="960" cy="144" r="7.08333" fill="white"/>
<circle cx="1028" cy="144" r="7.08333" fill="white"/>
<circle cx="1096" cy="144" r="7.08333" fill="white"/>
<circle cx="1164" cy="144" r="7.08333" fill="white"/>
<circle cx="1232" cy="144" r="7.08333" fill="white"/>
<circle cx="8.00008" cy="76" r="7.08333" fill="white"/>
<circle cx="76.0001" cy="76" r="7.08333" fill="white"/>
<circle cx="144" cy="76" r="7.08333" fill="white"/>
<circle cx="212" cy="76" r="7.08333" fill="white"/>
<circle cx="280" cy="76" r="7.08333" fill="white"/>
<circle cx="348" cy="76" r="7.08333" fill="white"/>
<circle cx="416" cy="76" r="7.08333" fill="white"/>
<circle cx="484" cy="76" r="7.08333" fill="white"/>
<circle cx="552" cy="76" r="7.08333" fill="white"/>
<circle cx="620" cy="76" r="7.08333" fill="white"/>
<circle cx="688" cy="76" r="7.08333" fill="white"/>
<circle cx="756" cy="76" r="7.08333" fill="white"/>
<circle cx="824" cy="76" r="7.08333" fill="white"/>
<circle cx="892" cy="76" r="7.08333" fill="white"/>
<circle cx="960" cy="76" r="7.08333" fill="white"/>
<circle cx="1028" cy="76" r="7.08333" fill="white"/>
<circle cx="1096" cy="76" r="7.08333" fill="white"/>
<circle cx="1164" cy="76" r="7.08333" fill="white"/>
<circle cx="1232" cy="76" r="7.08333" fill="white"/>
<circle cx="8.00002" cy="7.99999" r="7.08333" fill="white"/>
<circle cx="76.0001" cy="8.00002" r="7.08333" fill="white"/>
<circle cx="144" cy="8.00002" r="7.08333" fill="white"/>
<circle cx="212" cy="8.00002" r="7.08333" fill="white"/>
<circle cx="280" cy="8.00002" r="7.08333" fill="white"/>
<circle cx="348" cy="8.00002" r="7.08333" fill="white"/>
<circle cx="416" cy="8.00002" r="7.08333" fill="white"/>
<circle cx="484" cy="8.00002" r="7.08333" fill="white"/>
<circle cx="552" cy="8.00002" r="7.08333" fill="white"/>
<circle cx="620" cy="8.00002" r="7.08333" fill="white"/>
<circle cx="688" cy="8.00002" r="7.08333" fill="white"/>
<circle cx="756" cy="8.00002" r="7.08333" fill="white"/>
<circle cx="824" cy="8.00002" r="7.08333" fill="white"/>
<circle cx="892" cy="8.00002" r="7.08333" fill="white"/>
<circle cx="960" cy="8.00002" r="7.08333" fill="white"/>
<circle cx="1028" cy="8.00002" r="7.08333" fill="white"/>
<circle cx="1096" cy="8.00002" r="7.08333" fill="white"/>
<circle cx="1164" cy="8.00002" r="7.08333" fill="white"/>
<circle cx="1232" cy="8.00002" r="7.08333" fill="white"/>
</g>
</svg>
