<?xml version="1.0" encoding="UTF-8"?>
<svg xmlns="http://www.w3.org/2000/svg" width="1360" height="680" viewBox="0 0 1360 680" fill="none">
  <rect width="1360" height="680" rx="17" fill="#115E35"></rect>
  <g opacity="0.1">
    <circle cx="68.0001" cy="612" r="7.08333" fill="white"></circle>
    <circle cx="136" cy="612" r="7.08333" fill="white"></circle>
    <circle cx="204" cy="612" r="7.08333" fill="white"></circle>
    <circle cx="272" cy="612" r="7.08333" fill="white"></circle>
    <circle cx="340" cy="612" r="7.08333" fill="white"></circle>
    <circle cx="408" cy="612" r="7.08333" fill="white"></circle>
    <circle cx="476" cy="612" r="7.08333" fill="white"></circle>
    <circle cx="544" cy="612" r="7.08333" fill="white"></circle>
    <circle cx="612" cy="612" r="7.08333" fill="white"></circle>
    <circle cx="680" cy="612" r="7.08333" fill="white"></circle>
    <circle cx="748" cy="612" r="7.08333" fill="white"></circle>
    <circle cx="816" cy="612" r="7.08333" fill="white"></circle>
    <circle cx="884" cy="612" r="7.08333" fill="white"></circle>
    <circle cx="952" cy="612" r="7.08333" fill="white"></circle>
    <circle cx="1020" cy="612" r="7.08333" fill="white"></circle>
    <circle cx="1088" cy="612" r="7.08333" fill="white"></circle>
    <circle cx="1156" cy="612" r="7.08333" fill="white"></circle>
    <circle cx="1224" cy="612" r="7.08333" fill="white"></circle>
    <circle cx="1292" cy="612" r="7.08333" fill="white"></circle>
    <circle cx="68.0001" cy="544" r="7.08333" fill="white"></circle>
    <circle cx="136" cy="544" r="7.08333" fill="white"></circle>
    <circle cx="204" cy="544" r="7.08333" fill="white"></circle>
    <circle cx="272" cy="544" r="7.08333" fill="white"></circle>
    <circle cx="340" cy="544" r="7.08333" fill="white"></circle>
    <circle cx="408" cy="544" r="7.08333" fill="white"></circle>
    <circle cx="476" cy="544" r="7.08333" fill="white"></circle>
    <circle cx="544" cy="544" r="7.08333" fill="white"></circle>
    <circle cx="612" cy="544" r="7.08333" fill="white"></circle>
    <circle cx="680" cy="544" r="7.08333" fill="white"></circle>
    <circle cx="748" cy="544" r="7.08333" fill="white"></circle>
    <circle cx="816" cy="544" r="7.08333" fill="white"></circle>
    <circle cx="884" cy="544" r="7.08333" fill="white"></circle>
    <circle cx="952" cy="544" r="7.08333" fill="white"></circle>
    <circle cx="1020" cy="544" r="7.08333" fill="white"></circle>
    <circle cx="1088" cy="544" r="7.08333" fill="white"></circle>
    <circle cx="1156" cy="544" r="7.08333" fill="white"></circle>
    <circle cx="1224" cy="544" r="7.08333" fill="white"></circle>
    <circle cx="1292" cy="544" r="7.08333" fill="white"></circle>
    <circle cx="68.0001" cy="476" r="7.08333" fill="white"></circle>
    <circle cx="136" cy="476" r="7.08333" fill="white"></circle>
    <circle cx="204" cy="476" r="7.08333" fill="white"></circle>
    <circle cx="272" cy="476" r="7.08333" fill="white"></circle>
    <circle cx="340" cy="476" r="7.08333" fill="white"></circle>
    <circle cx="408" cy="476" r="7.08333" fill="white"></circle>
    <circle cx="476" cy="476" r="7.08333" fill="white"></circle>
    <circle cx="544" cy="476" r="7.08333" fill="white"></circle>
    <circle cx="612" cy="476" r="7.08333" fill="white"></circle>
    <circle cx="680" cy="476" r="7.08333" fill="white"></circle>
    <circle cx="748" cy="476" r="7.08333" fill="white"></circle>
    <circle cx="816" cy="476" r="7.08333" fill="white"></circle>
    <circle cx="884" cy="476" r="7.08333" fill="white"></circle>
    <circle cx="952" cy="476" r="7.08333" fill="white"></circle>
    <circle cx="1020" cy="476" r="7.08333" fill="white"></circle>
    <circle cx="1088" cy="476" r="7.08333" fill="white"></circle>
    <circle cx="1156" cy="476" r="7.08333" fill="white"></circle>
    <circle cx="1224" cy="476" r="7.08333" fill="white"></circle>
    <circle cx="1292" cy="476" r="7.08333" fill="white"></circle>
    <circle cx="68.0001" cy="408" r="7.08333" fill="white"></circle>
    <circle cx="136" cy="408" r="7.08333" fill="white"></circle>
    <circle cx="204" cy="408" r="7.08333" fill="white"></circle>
    <circle cx="272" cy="408" r="7.08333" fill="white"></circle>
    <circle cx="340" cy="408" r="7.08333" fill="white"></circle>
    <circle cx="408" cy="408" r="7.08333" fill="white"></circle>
    <circle cx="476" cy="408" r="7.08333" fill="white"></circle>
    <circle cx="544" cy="408" r="7.08333" fill="white"></circle>
    <circle cx="612" cy="408" r="7.08333" fill="white"></circle>
    <circle cx="680" cy="408" r="7.08333" fill="white"></circle>
    <circle cx="748" cy="408" r="7.08333" fill="white"></circle>
    <circle cx="816" cy="408" r="7.08333" fill="white"></circle>
    <circle cx="884" cy="408" r="7.08333" fill="white"></circle>
    <circle cx="952" cy="408" r="7.08333" fill="white"></circle>
    <circle cx="1020" cy="408" r="7.08333" fill="white"></circle>
    <circle cx="1088" cy="408" r="7.08333" fill="white"></circle>
    <circle cx="1156" cy="408" r="7.08333" fill="white"></circle>
    <circle cx="1224" cy="408" r="7.08333" fill="white"></circle>
    <circle cx="1292" cy="408" r="7.08333" fill="white"></circle>
    <circle cx="68.0001" cy="340" r="7.08333" fill="white"></circle>
    <circle cx="136" cy="340" r="7.08333" fill="white"></circle>
    <circle cx="204" cy="340" r="7.08333" fill="white"></circle>
    <circle cx="272" cy="340" r="7.08333" fill="white"></circle>
    <circle cx="340" cy="340" r="7.08333" fill="white"></circle>
    <circle cx="408" cy="340" r="7.08333" fill="white"></circle>
    <circle cx="476" cy="340" r="7.08333" fill="white"></circle>
    <circle cx="544" cy="340" r="7.08333" fill="white"></circle>
    <circle cx="612" cy="340" r="7.08333" fill="white"></circle>
    <circle cx="680" cy="340" r="7.08333" fill="white"></circle>
    <circle cx="748" cy="340" r="7.08333" fill="white"></circle>
    <circle cx="816" cy="340" r="7.08333" fill="white"></circle>
    <circle cx="884" cy="340" r="7.08333" fill="white"></circle>
    <circle cx="952" cy="340" r="7.08333" fill="white"></circle>
    <circle cx="1020" cy="340" r="7.08333" fill="white"></circle>
    <circle cx="1088" cy="340" r="7.08333" fill="white"></circle>
    <circle cx="1156" cy="340" r="7.08333" fill="white"></circle>
    <circle cx="1224" cy="340" r="7.08333" fill="white"></circle>
    <circle cx="1292" cy="340" r="7.08333" fill="white"></circle>
    <circle cx="68.0001" cy="272" r="7.08333" fill="white"></circle>
    <circle cx="136" cy="272" r="7.08333" fill="white"></circle>
    <circle cx="204" cy="272" r="7.08333" fill="white"></circle>
    <circle cx="272" cy="272" r="7.08333" fill="white"></circle>
    <circle cx="340" cy="272" r="7.08333" fill="white"></circle>
    <circle cx="408" cy="272" r="7.08333" fill="white"></circle>
    <circle cx="476" cy="272" r="7.08333" fill="white"></circle>
    <circle cx="544" cy="272" r="7.08333" fill="white"></circle>
    <circle cx="612" cy="272" r="7.08333" fill="white"></circle>
    <circle cx="680" cy="272" r="7.08333" fill="white"></circle>
    <circle cx="748" cy="272" r="7.08333" fill="white"></circle>
    <circle cx="816" cy="272" r="7.08333" fill="white"></circle>
    <circle cx="884" cy="272" r="7.08333" fill="white"></circle>
    <circle cx="952" cy="272" r="7.08333" fill="white"></circle>
    <circle cx="1020" cy="272" r="7.08333" fill="white"></circle>
    <circle cx="1088" cy="272" r="7.08333" fill="white"></circle>
    <circle cx="1156" cy="272" r="7.08333" fill="white"></circle>
    <circle cx="1224" cy="272" r="7.08333" fill="white"></circle>
    <circle cx="1292" cy="272" r="7.08333" fill="white"></circle>
    <circle cx="68.0001" cy="204" r="7.08333" fill="white"></circle>
    <circle cx="136" cy="204" r="7.08333" fill="white"></circle>
    <circle cx="204" cy="204" r="7.08333" fill="white"></circle>
    <circle cx="272" cy="204" r="7.08333" fill="white"></circle>
    <circle cx="340" cy="204" r="7.08333" fill="white"></circle>
    <circle cx="408" cy="204" r="7.08333" fill="white"></circle>
    <circle cx="476" cy="204" r="7.08333" fill="white"></circle>
    <circle cx="544" cy="204" r="7.08333" fill="white"></circle>
    <circle cx="612" cy="204" r="7.08333" fill="white"></circle>
    <circle cx="680" cy="204" r="7.08333" fill="white"></circle>
    <circle cx="748" cy="204" r="7.08333" fill="white"></circle>
    <circle cx="816" cy="204" r="7.08333" fill="white"></circle>
    <circle cx="884" cy="204" r="7.08333" fill="white"></circle>
    <circle cx="952" cy="204" r="7.08333" fill="white"></circle>
    <circle cx="1020" cy="204" r="7.08333" fill="white"></circle>
    <circle cx="1088" cy="204" r="7.08333" fill="white"></circle>
    <circle cx="1156" cy="204" r="7.08333" fill="white"></circle>
    <circle cx="1224" cy="204" r="7.08333" fill="white"></circle>
    <circle cx="1292" cy="204" r="7.08333" fill="white"></circle>
    <circle cx="68.0001" cy="136" r="7.08333" fill="white"></circle>
    <circle cx="136" cy="136" r="7.08333" fill="white"></circle>
    <circle cx="204" cy="136" r="7.08333" fill="white"></circle>
    <circle cx="272" cy="136" r="7.08333" fill="white"></circle>
    <circle cx="340" cy="136" r="7.08333" fill="white"></circle>
    <circle cx="408" cy="136" r="7.08333" fill="white"></circle>
    <circle cx="476" cy="136" r="7.08333" fill="white"></circle>
    <circle cx="544" cy="136" r="7.08333" fill="white"></circle>
    <circle cx="612" cy="136" r="7.08333" fill="white"></circle>
    <circle cx="680" cy="136" r="7.08333" fill="white"></circle>
    <circle cx="748" cy="136" r="7.08333" fill="white"></circle>
    <circle cx="816" cy="136" r="7.08333" fill="white"></circle>
    <circle cx="884" cy="136" r="7.08333" fill="white"></circle>
    <circle cx="952" cy="136" r="7.08333" fill="white"></circle>
    <circle cx="1020" cy="136" r="7.08333" fill="white"></circle>
    <circle cx="1088" cy="136" r="7.08333" fill="white"></circle>
    <circle cx="1156" cy="136" r="7.08333" fill="white"></circle>
    <circle cx="1224" cy="136" r="7.08333" fill="white"></circle>
    <circle cx="1292" cy="136" r="7.08333" fill="white"></circle>
    <circle cx="68" cy="68" r="7.08333" fill="white"></circle>
    <circle cx="136" cy="68" r="7.08333" fill="white"></circle>
    <circle cx="204" cy="68" r="7.08333" fill="white"></circle>
    <circle cx="272" cy="68" r="7.08333" fill="white"></circle>
    <circle cx="340" cy="68" r="7.08333" fill="white"></circle>
    <circle cx="408" cy="68" r="7.08333" fill="white"></circle>
    <circle cx="476" cy="68" r="7.08333" fill="white"></circle>
    <circle cx="544" cy="68" r="7.08333" fill="white"></circle>
    <circle cx="612" cy="68" r="7.08333" fill="white"></circle>
    <circle cx="680" cy="68" r="7.08333" fill="white"></circle>
    <circle cx="748" cy="68" r="7.08333" fill="white"></circle>
    <circle cx="816" cy="68" r="7.08333" fill="white"></circle>
    <circle cx="884" cy="68" r="7.08333" fill="white"></circle>
    <circle cx="952" cy="68" r="7.08333" fill="white"></circle>
    <circle cx="1020" cy="68" r="7.08333" fill="white"></circle>
    <circle cx="1088" cy="68" r="7.08333" fill="white"></circle>
    <circle cx="1156" cy="68" r="7.08333" fill="white"></circle>
    <circle cx="1224" cy="68" r="7.08333" fill="white"></circle>
    <circle cx="1292" cy="68" r="7.08333" fill="white"></circle>
  </g>
  <path d="M866.827 421.784V592.392M866.827 421.784H692.278C691.104 421.784 690.153 422.736 690.153 423.909V592.392M866.827 421.784H953.403M1213.13 592.392V423.909C1213.13 422.736 1212.18 421.784 1211.01 421.784H1039.98M1039.98 421.784V592.392M1039.98 421.784H953.403M953.403 421.784V288.698" stroke="black" stroke-width="5" stroke-linecap="round"></path>
  <rect x="615.5" y="537.925" width="148.388" height="79.5754" fill="#E4CCFF" stroke="black" stroke-width="3"></rect>
  <rect x="793.496" y="537.925" width="148.388" height="79.5754" fill="#BDE3FF" stroke="black" stroke-width="3"></rect>
  <rect x="819.269" y="248.993" width="279.426" height="77.5754" fill="#EBEBEB" stroke="black" stroke-width="5"></rect>
  <rect x="971.492" y="537.925" width="148.388" height="79.5754" fill="#E4CCFF" stroke="black" stroke-width="3"></rect>
  <rect x="1149.49" y="537.925" width="148.388" height="79.5754" fill="#BDE3FF" stroke="black" stroke-width="3"></rect>
  <path d="M782.846 306.03C784.38 295.634 785.086 283.294 789.233 273.585C791.362 268.6 796.286 277.94 796.925 279.033C800.963 285.938 803.754 295.222 808.978 301.286C811.299 303.981 815.21 293.52 815.642 292.551C818.208 286.8 820.605 276.352 827.022 273.477C834.087 270.313 844.443 281.326 849.355 284.794C854.972 288.76 876.265 303.502 879.914 289.884" stroke="black" stroke-width="5" stroke-linecap="round"></path>
  <mask id="path-180-inside-1_3002_2539" fill="white">
    <path fill-rule="evenodd" clip-rule="evenodd" d="M1136.39 171.015C1131.96 166.589 1124.79 166.589 1120.36 171.015L1040.14 251.233L1040.14 251.232L1040.14 251.234L1032.36 290.158L1071.28 282.373L1071.28 282.375L1151.5 202.156C1155.93 197.73 1155.93 190.554 1151.5 186.128L1136.39 171.015Z"></path>
  </mask>
  <path fill-rule="evenodd" clip-rule="evenodd" d="M1136.39 171.015C1131.96 166.589 1124.79 166.589 1120.36 171.015L1040.14 251.233L1040.14 251.232L1040.14 251.234L1032.36 290.158L1071.28 282.373L1071.28 282.375L1151.5 202.156C1155.93 197.73 1155.93 190.554 1151.5 186.128L1136.39 171.015Z" fill="white"></path>
  <path d="M1120.36 171.015L1116.82 167.479L1120.36 171.015ZM1040.14 251.233L1036.61 254.768L1040.14 258.304L1043.68 254.768L1040.14 251.233ZM1040.14 251.232L1043.68 247.696L1037.1 241.115L1035.24 250.236L1040.14 251.232ZM1040.14 251.234L1035.24 250.238L1035.24 250.246L1035.24 250.254L1040.14 251.234ZM1032.36 290.158L1027.45 289.178L1025.98 296.532L1033.34 295.061L1032.36 290.158ZM1071.28 282.373L1074.82 278.838L1072.92 276.946L1070.3 277.471L1071.28 282.373ZM1071.28 282.375L1067.75 285.911L1071.28 289.446L1074.82 285.911L1071.28 282.375ZM1123.9 174.55C1126.37 172.077 1130.38 172.077 1132.85 174.55L1139.92 167.479C1133.54 161.101 1123.2 161.101 1116.82 167.479L1123.9 174.55ZM1043.68 254.768L1123.9 174.55L1116.82 167.479L1036.61 247.697L1043.68 254.768ZM1036.61 254.767L1036.61 254.768L1043.68 247.697L1043.68 247.696L1036.61 254.767ZM1045.04 252.23L1045.04 252.228L1035.24 250.236L1035.24 250.238L1045.04 252.23ZM1037.26 291.139L1045.04 252.215L1035.24 250.254L1027.45 289.178L1037.26 291.139ZM1070.3 277.471L1031.37 285.255L1033.34 295.061L1072.26 287.276L1070.3 277.471ZM1074.82 278.84L1074.82 278.838L1067.74 285.909L1067.75 285.911L1074.82 278.84ZM1147.97 198.62L1067.75 278.84L1074.82 285.911L1155.04 205.691L1147.97 198.62ZM1147.97 189.664C1150.44 192.137 1150.44 196.147 1147.97 198.62L1155.04 205.691C1161.41 199.313 1161.41 188.971 1155.04 182.593L1147.97 189.664ZM1132.85 174.55L1147.97 189.664L1155.04 182.593L1139.92 167.479L1132.85 174.55Z" fill="black" mask="url(#path-180-inside-1_3002_2539)"></path>
  <path d="M1107.65 188.989L1133.56 214.895" stroke="black" stroke-width="5"></path>
</svg>
